<svg xmlns="http://www.w3.org/2000/svg" viewBox="0 0 200 140"><ellipse cx="104" cy="126" rx="80" ry="9" fill="#dce7cd"/><path d="m34 49 44-31 45 31" stroke="#0d6048" stroke-width="5" stroke-linecap="round"/><path d="M43 46h71v76H43z" fill="#fffef5" stroke="#97b48d" stroke-width="2"/><rect x="55" y="58" width="34" height="33" rx="3" fill="#d5e9d8" stroke="#97b48d" stroke-width="1.5"/><path d="M72 59v31M55 75h34" stroke="#97b48d"/><path d="M139 39 113 99" stroke="#bb8854" stroke-width="7" stroke-linecap="round"/><path d="m106 91 26 10-4 21-39-14z" fill="#d8b578" stroke="#bf9a62" stroke-width="2"/><path d="m101 103 25 9m-24-17-7 15m14-12-7 15m14-12-6 15m14-12-6 14" stroke="#8c7954" stroke-width="1.3"/><path d="M153 75h21l7 45h-37z" fill="#387e60"/><path d="M157 61h15v15h-15z" fill="#f4bc82"/><path d="M158 65h-13v6h13M168 62h11" stroke="#d79757" stroke-width="3" stroke-linecap="round"/><rect x="150" y="92" width="23" height="16" rx="3" fill="#dcebc8"/><path d="M172 19v18m-9-9h18M25 73v13m-6-6h13M130 62v11m-5-5h11" stroke="#bca369" stroke-width="2.5" stroke-linecap="round"/></svg>